<svg xmlns="http://www.w3.org/2000/svg" viewBox="0 0 32 32">
  <style>
    .sky { fill: #F8F2E8; }
    .water { fill: #7BA7C7; }
    .body { fill: #1A2230; }
    .neck { fill: #FFF8F0; }
    .beak { fill: #C78A2C; }
    .eye { fill: #B63A3A; }
    @media (prefers-color-scheme: dark) {
      .sky { fill: #202633; }
      .water { fill: #4E7292; }
      .body { fill: #F3F1EC; }
      .neck { fill: #1A2230; }
      .beak { fill: #E5B45A; }
      .eye { fill: #F16C6C; }
    }
  </style>
  <rect class="sky" width="32" height="32" rx="7"/>
  <ellipse class="water" cx="16" cy="25" rx="13" ry="4.5"/>
  <path class="body" d="M8 21c1.8-4.8 6.2-7.7 10.2-7.7 4.4 0 6.8 2.8 6.8 6.2 0 3.5-2.8 5.6-6.8 5.6H11.3C9.3 25.1 8 23.7 8 21Z"/>
  <path class="neck" d="M17.4 13.7c2.7.1 4.9 1.2 6 3.2l-2.5 1.2c-.9-1.3-2.1-2-3.9-2.1Z"/>
  <circle class="body" cx="22.6" cy="12.4" r="2.5"/>
  <circle class="eye" cx="23.2" cy="11.9" r="0.52"/>
  <path class="beak" d="M24.8 12.1h3.7l-3.5 1.6Z"/>
</svg>
