<svg xmlns="http://www.w3.org/2000/svg" viewBox="0 0 32 32">
  <rect width="32" height="32" rx="7" fill="#F4E8D6"/>
  <path d="M6 9.5C6 8.1 7.1 7 8.5 7H15v16H8.5C7.1 23 6 21.9 6 20.5Z" fill="#D97B4D"/>
  <path d="M17 7h6.5C24.9 7 26 8.1 26 9.5v11c0 1.4-1.1 2.5-2.5 2.5H17Z" fill="#7B9B62"/>
  <path d="M15 7h2v16h-2Z" fill="#FFF9F0"/>
  <path d="M10 11.5h3.5" stroke="#FFF9F0" stroke-linecap="round" stroke-width="1.5"/>
  <path d="M18.5 11.5H22" stroke="#FFF9F0" stroke-linecap="round" stroke-width="1.5"/>
  <path d="M9 23.5c2-1.9 3.8-2.8 7-2.8s5 .9 7 2.8" fill="none" stroke="#32543B" stroke-linecap="round" stroke-linejoin="round" stroke-width="2"/>
  <circle cx="16" cy="24" r="2.4" fill="#F0C24B"/>
</svg>