<svg xmlns="http://www.w3.org/2000/svg" viewBox="0 0 100 80" width="100" height="80">
  <!-- Ears -->
  <ellipse cx="20" cy="16" rx="9" ry="11" fill="#9B8EA8"/>
  <ellipse cx="80" cy="16" rx="9" ry="11" fill="#9B8EA8"/>
  <ellipse cx="20" cy="16" rx="5" ry="7" fill="#B8ACCB"/>
  <ellipse cx="80" cy="16" rx="5" ry="7" fill="#B8ACCB"/>
  <!-- Head -->
  <ellipse cx="50" cy="46" rx="44" ry="36" fill="#9B8EA8"/>
  <!-- Eyes -->
  <ellipse cx="33" cy="32" rx="8" ry="8" fill="#fff"/>
  <ellipse cx="67" cy="32" rx="8" ry="8" fill="#fff"/>
  <ellipse cx="35" cy="33" rx="4.5" ry="4.5" fill="#2d1f3d"/>
  <ellipse cx="69" cy="33" rx="4.5" ry="4.5" fill="#2d1f3d"/>
  <ellipse cx="36.5" cy="31.5" rx="1.5" ry="1.5" fill="#fff"/>
  <ellipse cx="70.5" cy="31.5" rx="1.5" ry="1.5" fill="#fff"/>
  <!-- Nostrils -->
  <ellipse cx="40" cy="56" rx="5" ry="4" fill="#7A6B87"/>
  <ellipse cx="60" cy="56" rx="5" ry="4" fill="#7A6B87"/>
  <!-- Smile -->
  <path d="M 36 66 Q 50 74 64 66" stroke="#7A6B87" stroke-width="2.5" fill="none" stroke-linecap="round"/>
</svg>
